<svg id="Layer_1" data-name="Layer 1" xmlns="http://www.w3.org/2000/svg" viewBox="0 0 746.54 216.95"><defs><style>.cls-1,.cls-2{fill:#0079c1;}.cls-2{fill-rule:evenodd;}</style></defs><path class="cls-1" d="M435,88.54c2.55-12.56,3.77-15.7,6.39-18.25a10,10,0,0,1,7.67-2.91c3,0,5.41.93,6.86,2.73a9.91,9.91,0,0,1,1.74,5.82,15.07,15.07,0,0,1-.17,2.67h-6.16a11.27,11.27,0,0,0,.17-2.33c0-1.86-.64-3.37-2.9-3.37a3.8,3.8,0,0,0-3,1.22c-1.63,1.69-2.38,4.19-4.47,14.42a75.43,75.43,0,0,0-1.75,12.09c0,2.26.87,3.54,3,3.54a3.85,3.85,0,0,0,3.19-1.51,9.57,9.57,0,0,0,1.92-4.24h6.22c-.87,4.18-2.15,6.8-4.53,8.89-1.81,1.57-3.9,2.38-7.38,2.38s-5.82-1.22-7.15-3.31a9.65,9.65,0,0,1-1.4-5.7C433.24,98.19,433.88,94.18,435,88.54Z"/><path class="cls-1" d="M467.83,73.37h-6.57l1.1-5.52h19.3l-1.11,5.52H474l-7.15,35.86h-6.16Z"/><path class="cls-1" d="M486.31,67.85h9.36c3.25,0,5.17.64,6.68,2.15a7.72,7.72,0,0,1,1.92,5.63,25.3,25.3,0,0,1-.47,4.83c-2,10.17-5.93,12.61-12.2,12.61h-4.19l-3.19,16.16h-6.16Zm5.58,19.7c3.2,0,4.71-1.86,5.75-7.09a20.69,20.69,0,0,0,.47-3.6c0-2.33-.93-3.49-3.55-3.49h-3.19l-2.85,14.18Z"/><path class="cls-1" d="M511.82,67.85h16.51l-1.1,5.52H516.88l-2.44,12.26h8.89l-1.1,5.46h-8.89l-2.5,12.62h10.34l-1.1,5.52H503.57Z"/><path class="cls-1" d="M533.91,67.85h5.58l3.26,21.38L554.6,67.85h5.58l-8.25,41.38h-6.16l5.11-25.69L542.28,100h-3.43L537,83.42l-5.17,25.81h-6.16Z"/><path class="cls-1" d="M567,67.85h6.16l-5,24.87,14.06-24.87h5.23l-8.25,41.38H573L578,84.41l-13.83,24.82h-5.41Z"/><path class="cls-1" d="M594.25,67.85h5.58l3.25,21.38,11.86-21.38h5.58l-8.26,41.38H606.1l5.12-25.69L602.62,100h-3.43l-1.86-16.57-5.18,25.81H586Z"/><path class="cls-1" d="M622.15,88.54c2.55-12.56,3.77-15.7,6.39-18.25a10,10,0,0,1,7.67-2.91c3,0,5.41.93,6.86,2.73a9.91,9.91,0,0,1,1.74,5.82,15.07,15.07,0,0,1-.17,2.67h-6.16a11.27,11.27,0,0,0,.17-2.33c0-1.86-.64-3.37-2.9-3.37a3.8,3.8,0,0,0-3,1.22c-1.62,1.69-2.38,4.19-4.47,14.42a75.43,75.43,0,0,0-1.75,12.09c0,2.26.88,3.54,3,3.54a3.85,3.85,0,0,0,3.19-1.51,9.57,9.57,0,0,0,1.92-4.24h6.22c-.87,4.18-2.15,6.8-4.53,8.89-1.8,1.57-3.9,2.38-7.38,2.38s-5.82-1.22-7.15-3.31a9.65,9.65,0,0,1-1.4-5.7C620.4,98.19,621,94.18,622.15,88.54Z"/><path class="cls-1" d="M651.79,90.63c-2.33-1.45-3-3.84-3-6.57a20.4,20.4,0,0,1,.52-4c2-10,5.17-12.2,12.44-12.2h9.94l-8.32,41.38h-6.16L660.68,92h-3.25l-8.84,17.21h-6.74ZM655,83.25c0,2.5,1,3.49,3.49,3.49h3.2l2.67-13.37h-3.31c-3.2,0-4.65,1.63-5.64,6.68A16.32,16.32,0,0,0,655,83.25Z"/><path class="cls-1" d="M430.22,125.77h6.17l-8.26,41.38H422Zm2.27,20.11,12.67-20.11H452l-13.14,20,5.52,21.33h-6.74Z"/><path class="cls-1" d="M466.84,125.77h18.25L484,131.29H471.9l-2.1,10.58h3.26c3.25,0,5.17.69,6.68,2.21a7.63,7.63,0,0,1,1.92,5.63,27.71,27.71,0,0,1-.47,4.83c-2,10.17-5.92,12.61-12.2,12.61h-10.4Zm2.44,35.86c3.2,0,4.65-1.81,5.75-7.09a19.09,19.09,0,0,0,.41-3.66c0-2.33-.87-3.49-3.49-3.49H468.7l-2.85,14.24Z"/><path class="cls-1" d="M493.69,128.15a10.16,10.16,0,0,1,7.67-2.85c3.72,0,6,1.28,7.27,3.43a9.14,9.14,0,0,1,1.39,5.52c0,2.56-.64,6.57-1.8,12.21-2.56,12.61-3.66,15.69-6.39,18.31a9.94,9.94,0,0,1-7.62,2.84c-3.77,0-6-1.28-7.32-3.43a9.47,9.47,0,0,1-1.33-5.52,73.61,73.61,0,0,1,1.74-12.2C489.91,133.85,491,130.77,493.69,128.15Zm10.17,6.28c0-2.09-.75-3.6-3.08-3.6a3.87,3.87,0,0,0-2.9,1.22c-1.52,1.51-2.39,4.24-4.42,14.41a76.42,76.42,0,0,0-1.8,12c0,2.09.75,3.6,3.08,3.6a3.9,3.9,0,0,0,2.9-1.22c1.51-1.51,2.39-4.24,4.42-14.41A76.42,76.42,0,0,0,503.86,134.43Z"/><path class="cls-1" d="M507.29,161.63h.58c3.37,0,5.58-2.1,7.73-12.91l4.65-23H539l-8.26,41.38H524.5l7.14-35.86h-6.56L521.53,149c-3.14,15.81-6.33,18.19-13.48,18.19h-1.86Z"/><path class="cls-1" d="M545.77,125.77h6.16l-3.2,16.1H552c3.25,0,5.17.69,6.68,2.21a7.63,7.63,0,0,1,1.92,5.63,27.71,27.71,0,0,1-.47,4.83c-2,10.17-5.93,12.61-12.2,12.61h-10.4Zm2.44,35.86c3.2,0,4.65-1.81,5.75-7.09a19.92,19.92,0,0,0,.41-3.66c0-2.33-.87-3.49-3.49-3.49h-3.25l-2.85,14.24Z"/><path class="cls-1" d="M571.46,125.77h6.16l-7.15,35.86h6.8l7.15-35.86h6.16l-7.15,35.86h6.8l7.15-35.86h6.16l-8.26,41.38H563.2Z"/><path class="cls-1" d="M610.4,125.77h16.5l-1.1,5.52H615.45L613,143.55h8.89L620.8,149h-8.89l-2.5,12.61h10.34l-1.1,5.52H602.14Z"/><path class="cls-1" d="M632.48,125.77h5.58l3.26,21.39,11.85-21.39h5.58l-8.25,41.38h-6.16l5.11-25.69-8.6,16.45h-3.43l-1.86-16.57-5.17,25.81h-6.16Z"/><path class="cls-1" d="M657.53,161.63c3.43,0,4.94-.93,6.34-4.25l1.63-3.72-3-27.89h6.28l1.1,19.53,8.89-19.53h6.57l-16.74,33.42c-3.19,6.39-4.53,8-12.14,8Z"/><path class="cls-1" d="M683.4,160.06h6.68l-1.39,7.09H682Zm6.86-34.29h6.62l-6.16,29.87h-5.81Z"/><path class="cls-2" d="M293.68,111.36a2.05,2.05,0,0,0,2.11-2V75.9l0-.16a2.14,2.14,0,0,0-4.2,0v33.58l0,.07a2.06,2.06,0,0,0,2.13,2m3.93-43.51c6.69,0,7.11,5.39,7.11,8.87v31.91c0,3.48-.42,8.87-7.11,8.87h-7.89c-6.67,0-7.07-5.39-7.07-8.87V76.72c0-3.48.4-8.87,7.07-8.87h7.89M149,67.85h18.2V74h-8.67V117.5H149Zm24.57,0h15l5,49.65h-9.34l-.88-13.2h-4.5l-.9,13.2h-9.32Zm9.4,31L181.29,74h-.53l-1.65,24.83Zm24.23,1.27v9.35a1.49,1.49,0,0,0,1.49,1.64,1.57,1.57,0,0,0,1.49-1.64V97.91c0-1.55-.27-3.25-3.82-3.25h-3.87V89.2h4c2.72,0,3.68-.66,3.68-3.68V75.64A1.57,1.57,0,0,0,208.65,74a1.49,1.49,0,0,0-1.49,1.63v8.09H197.6v-7c0-3.48.42-8.87,7.09-8.87h7.91c6.68,0,7.09,5.39,7.09,8.87v8c0,5.38-3.62,6.86-6.49,6.72v.51c6.41-.16,6.49,5,6.49,6.73v10c0,3.48-.41,8.87-7.09,8.87h-7.91c-6.67,0-7.09-5.39-7.09-8.87v-8.52ZM226,67.85H248V117.5h-8.9V74h-4.28V117.5H226Zm29,0h15c6.68,0,7.74,5.39,7.74,8.87v15c0,3.49-1.06,8.89-7.74,8.89h-5.45V117.5h-9.53Zm12,27.3c1,0,1.78-.91,1.78-2.48V76.49c0-1.56-.74-2.48-1.78-2.48h-2.51V95.15Zm68.17-27.3h12.4V117.5H338V86.36h-.33l-4.91,31.14h-7.63l-4.9-31.14h-.33V117.5h-9.56V67.85h12.39l6.19,34.89ZM128.62,72.9a82.82,82.82,0,0,0-2.85-22.51,85,85,0,0,0-8-18.51A92.71,92.71,0,0,0,110,50.66a84.08,84.08,0,0,0-2.74,17.09,95.69,95.69,0,0,0,1.26,18.84c0-2.74,0-11.89,1.75-19.44s4.93-16.27,7.56-20.7c2.85,4.66,6.42,14.72,7.67,20.75a84.14,84.14,0,0,1,1.65,19.21,72.86,72.86,0,0,0,1.48-13.51m-10.74,38.53a34.79,34.79,0,0,0,3.94-17A36.82,36.82,0,0,0,117.93,79a34.06,34.06,0,0,0-4.06,16.16,36.2,36.2,0,0,0,4,16.3m11.61-60.92c3,13.18,2.94,21.29,1.64,30.54-2.36,16.65-9.92,29.38-13.2,33.66a71.88,71.88,0,0,1-8-14.34,88.6,88.6,0,0,1-5.49-20.74,81.25,81.25,0,0,1,2.69-32.36,88.53,88.53,0,0,1,10.73-22.44c1,1.74,8.59,12.48,11.61,25.68m6.18,67v34A49.62,49.62,0,1,1,99.39,68.1v37.24a27.89,27.89,0,0,0-19.74,8.14,27.32,27.32,0,0,0-3.43,4.14,27.88,27.88,0,0,0,42.84,35.25l.09-.07h0l.07-.06a13.94,13.94,0,1,0-19.76-19.68.13.13,0,0,0-.07,0V117.5Zm203,35.7c0-4.31-1.83-5.47-6.77-5.47H331v-8.32h-5V161h5c5.48,0,7.62-.83,7.62-5.56Zm-42-13.8H283.94v4.08H288V161h4.79V143.48h3.8Zm-38.72,7.15c0-4.4-2.15-5.52-7.19-5.52v-1.62h-4.89V141c-5.06,0-7.22,1.12-7.22,5.52v6.74c0,4.37,2.25,5.55,7.22,5.55V161h4.89v-2.13c5,0,7.19-1.18,7.19-5.55Zm-45.63-7.15H200.18V161h12.09V156.9h-6.89v-5.08h6.16v-4.09h-6.16v-4.25h6.89Zm-41.75,0h-5v8.32h-2.59v-8.32h-5V161h5v-9.43h2.59V161h5Zm177,27.74H149V134H347.55ZM243.49,146.41c0-1.26.41-1.58,1.52-1.58h.81v10H245c-1.11,0-1.52-.29-1.52-1.56v-6.9m88.65,5.13c1.12,0,1.47.28,1.47,1.51v2.6c0,1.23-.35,1.52-1.47,1.52H331v-5.63h1.13m-80.65-6.71c1.13,0,1.53.25,1.53,1.53v6.93c0,1.26-.4,1.58-1.53,1.58h-.78v-10h.78"/><path class="cls-2" d="M335.15,67.85h12.4V117.5H338V86.36h-.33l-4.91,31.14h-7.63l-4.9-31.14h-.33V117.5h-9.56V67.85h12.39l6.19,34.89Z"/><polygon class="cls-1" points="384.76 64.58 395.32 117.51 384.76 170.43 389.65 170.43 400.21 117.51 389.65 64.58 384.76 64.58"/></svg>