<svg width="249" height="119" viewBox="0 0 249 119" fill="none" xmlns="http://www.w3.org/2000/svg">
<path d="M203.324 72.083C202.35 72.083 201.556 71.349 201.556 70.44C201.556 70.42 201.565 70.4 201.565 70.378V42.658V42.533L201.574 42.415C201.666 41.598 202.407 40.952 203.316 40.952C204.223 40.952 204.977 41.598 205.065 42.415L205.076 42.533V42.658V70.379C205.076 70.4 205.082 70.421 205.082 70.441C205.083 71.349 204.291 72.083 203.324 72.083ZM206.611 35.834H200.029C194.465 35.834 194.134 40.327 194.134 43.225V69.802C194.134 72.704 194.465 77.198 200.029 77.198H206.611C212.175 77.198 212.516 72.704 212.516 69.802V43.225C212.517 40.327 212.175 35.834 206.611 35.834Z" fill="#0070BA"/>
<path d="M82.739 35.834H97.899V40.97H90.685V77.198H82.739V35.834Z" fill="#0070BA"/>
<path d="M99.075 77.196H106.842L107.588 66.202H111.338L112.071 77.196H119.85L115.701 35.834H103.22L99.075 77.196ZM107.869 61.656L109.239 40.963H109.685L111.046 61.656H107.869V61.656Z" fill="#0070BA"/>
<path d="M131.23 62.715V70.5C131.23 71.563 132.014 71.866 132.477 71.866C133.208 71.866 133.722 71.21 133.722 70.5V60.883C133.722 59.584 133.502 58.171 130.536 58.171H127.316V53.619H130.652C132.923 53.619 133.722 53.078 133.722 50.554V42.323C133.722 41.616 133.209 40.971 132.477 40.971C132.014 40.971 131.23 41.265 131.23 42.323V49.071H123.277V43.227C123.277 40.329 123.624 35.834 129.181 35.834H135.771C141.337 35.834 141.673 40.328 141.673 43.227V49.848C141.673 54.33 138.662 55.568 136.273 55.452V55.869C141.606 55.741 141.673 60 141.673 61.482V69.803C141.673 72.705 141.337 77.198 135.771 77.198H129.181C123.624 77.198 123.277 72.706 123.277 69.803V62.716H131.23V62.715Z" fill="#0070BA"/>
<path d="M146.901 35.834H165.29V77.198H157.878V40.97H154.311V77.198H146.901V35.834Z" fill="#0070BA"/>
<path d="M171.048 77.198H178.99V63.136H183.531C189.097 63.136 189.983 58.647 189.983 55.74V43.225C189.983 40.327 189.097 35.832 183.531 35.832H171.048V77.198ZM178.99 58.576V40.97H181.077C181.941 40.97 182.566 41.738 182.566 43.032V56.515C182.566 57.816 181.941 58.577 181.077 58.577H178.99V58.576Z" fill="#0070BA"/>
<path d="M237.875 35.834H248.214V77.198H240.263V51.258H239.979L235.884 77.198H229.536L225.446 51.258H225.166V77.198H217.215V35.834H227.537L232.698 64.903L237.875 35.834Z" fill="#0070BA"/>
<path d="M65.789 40.038C65.697 44.232 65.194 48.658 64.558 51.3C64.789 46.746 64.237 40.315 63.186 35.293C62.142 30.27 59.165 21.896 56.796 18.012C54.615 21.704 51.915 28.954 50.504 35.253C49.082 41.547 49.042 49.164 49.042 51.453C48.663 49.511 47.721 42.658 47.992 35.757C48.216 30.059 49.544 24.215 50.274 21.519C53.055 12.534 56.209 6.793 56.796 5.877C57.389 6.793 61.362 13.864 63.419 21.293C65.465 28.729 65.872 35.845 65.789 40.038ZM56.846 72.133C55.616 69.813 53.691 65.391 53.512 58.562C53.461 51.946 56.11 46.285 56.887 45.097C57.581 46.285 59.85 51.216 60.125 57.964C60.313 64.568 58.127 69.764 56.846 72.133ZM66.515 21.387C64.007 10.396 57.704 1.457 56.846 0C55.474 2.049 50.454 9.939 47.903 18.696C45.118 28.458 44.708 37.117 45.666 45.653C46.626 54.177 50.232 62.93 50.232 62.93C52.148 67.531 55.019 72.45 56.888 74.869C59.622 71.311 65.929 60.702 67.886 46.836C68.977 39.13 69.018 32.374 66.515 21.387Z" fill="#0070BA"/>
<path d="M41.437 77.1891V90.1891C41.454 90.1721 41.472 90.1571 41.495 90.1361C46.038 85.6101 53.411 85.6101 57.959 90.1361C62.511 94.6591 62.511 102.014 57.959 106.535C57.942 106.556 57.926 106.571 57.905 106.592V106.597C57.876 106.617 57.856 106.637 57.838 106.657C53.295 111.138 47.368 113.386 41.437 113.386C35.494 113.386 29.53 111.115 24.991 106.606C16.99 98.6311 16.03 86.3001 22.139 77.2921C22.958 76.0741 23.909 74.9191 24.991 73.8461C29.531 69.3231 35.494 67.0681 41.437 67.0681V36.0551C18.564 36.0551 0 54.5271 0 77.2921C0 100.078 18.564 118.545 41.437 118.545C53.378 118.545 64.12 113.513 71.677 105.483V77.1891H41.437Z" fill="#0070BA"/>
<path d="M240.787 108.775C240.787 112.707 238.996 113.407 234.439 113.407H230.245V95.45H234.439V102.38H235.142C239.262 102.38 240.787 103.34 240.787 106.931V108.775ZM205.785 98.842H202.608V113.42H198.618V98.842H195.214V95.434H205.785V98.842ZM173.513 107.003C173.513 110.649 171.659 111.631 167.53 111.631V113.407H163.451V111.631C159.307 111.631 157.43 110.65 157.43 107.003V101.392C157.43 97.727 159.231 96.794 163.451 96.794V95.45H167.53V96.794C171.724 96.794 173.513 97.727 173.513 101.392V107.003ZM135.49 98.842H129.753V102.375H134.889V105.779H129.753V110.011H135.49V113.419H125.425V95.434H135.49V98.842ZM100.704 113.407H96.506V105.546H94.352V113.407H90.158V95.45H94.352V102.38H96.506V95.45H100.704V113.407V113.407ZM248.214 90.972H82.739V118.548H248.214V90.972ZM161.508 101.277V107.026C161.508 108.081 161.847 108.321 162.771 108.321H163.45V99.955H162.771C161.848 99.955 161.508 100.225 161.508 101.277ZM235.371 105.546H234.438V110.234H235.371C236.314 110.234 236.594 109.998 236.594 108.971V106.81C236.594 105.779 236.314 105.546 235.371 105.546ZM168.174 99.955H167.529V108.321H168.174C169.107 108.321 169.445 108.059 169.445 107.003V101.229C169.445 100.172 169.107 99.955 168.174 99.955Z" fill="#0070BA"/>
</svg>
