<svg width="451" height="178" viewBox="0 0 451 178" fill="none" xmlns="http://www.w3.org/2000/svg">
<path d="M88.3927 0.829224C137.199 0.829224 176.763 40.394 176.763 89.1999C176.763 138.006 137.199 177.571 88.3927 177.571C39.5868 177.571 0.0220032 138.006 0.0220032 89.1999C0.0220032 40.394 39.5868 0.829224 88.3927 0.829224V0.829224Z" fill="url(#paint0_linear)"/>
<ellipse cx="88.32" cy="89.2499" rx="88.32" ry="88.25" transform="rotate(-90 88.32 89.2499)" fill="url(#paint1_linear)"/>
<path fill-rule="evenodd" clip-rule="evenodd" d="M131.331 166.449C131.19 166.527 131.049 166.608 130.906 166.686L137.793 155.638H138.076L131.331 166.449ZM130.191 167.076C129.583 167.403 128.971 167.724 128.354 168.037L121.062 155.638H121.61L128.688 167.682C128.741 167.576 128.792 167.525 128.845 167.472C129.004 167.314 129.161 167.208 129.372 167.155L125.801 155.638H125.98L129.529 167.104C129.529 167.104 129.582 167.104 129.582 167.051L127.891 155.638H128.103L129.793 167.051C129.844 167.051 129.844 167.051 129.897 167.051C130.002 167.051 130.099 167.059 130.191 167.076V167.076ZM114.441 173.666L114.184 173.743L112.939 155.638H113.183L114.441 173.666ZM110.215 174.852C110.098 174.882 109.979 174.909 109.861 174.939L70.5472 155.638H71.0656L83.4604 161.739L110.215 174.852ZM99.0535 176.929L98.8579 176.951L98.6592 176.411C98.6062 176.411 98.5532 176.411 98.5002 176.464L98.5872 176.982L98.3808 177.005L98.2898 176.464C98.2385 176.464 98.1855 176.464 98.1325 176.464L98.103 177.037L97.8692 177.064V176.464C97.8179 176.464 97.7649 176.464 97.7119 176.464L97.544 177.101L97.3232 177.124L97.5015 176.411C97.2382 176.36 97.0279 176.201 96.8705 176.043L95.7851 177.26C95.6519 177.271 95.5198 177.285 95.3866 177.296L96.6599 175.886C96.4496 175.676 96.2923 175.359 96.1863 174.991L81.9813 177.338C81.6037 177.31 81.2264 177.279 80.85 177.247L96.1863 174.781C96.1349 174.203 96.2923 173.676 96.7129 173.256C97.4485 172.52 98.6592 172.52 99.3948 173.256C100.132 173.993 100.132 175.202 99.3948 175.939C99.2375 176.096 99.0271 176.254 98.8165 176.307L99.0535 176.929ZM78.1349 176.974C77.2721 176.874 76.4129 176.763 75.5574 176.639C75.7102 176.508 75.9078 176.46 76.1507 176.411L73.9941 174.677L75.4854 176.629C75.376 176.614 75.2669 176.6 75.158 176.584L73.2058 174.046L55.4294 159.793L58.2403 172.29L58.0424 172.22L55.1661 159.635L54.7984 159.321L52.0636 165.104L57.7887 172.125C57.5177 172.024 57.2484 171.919 56.9783 171.817L51.8532 165.525L50.2443 168.933L49.8696 168.751L51.5899 165.21L43.8051 155.638H44.3434L51.7489 164.737L54.4838 159.057L50.2335 155.638H50.9257L54.6941 158.636L54.8514 158.269L54.2701 155.638H54.4968L54.6411 156.269L55.0088 157.952L56.1151 155.638H56.5724L55.1661 158.636L55.2721 159.11L72.1008 172.624L68.6292 168.05L59.1082 155.638H59.4263L59.7426 156.059L72.8894 173.256L76.8333 176.411C77.0966 176.464 77.3069 176.57 77.5173 176.727L65.0596 155.638H65.5267L78.1349 176.974ZM42.8051 164.916L42.3821 164.66L37.3914 157.111C37.1281 157.268 36.8135 157.374 36.4971 157.374L36.3857 160.647L36.1765 160.494L36.2868 157.321C35.8658 157.321 35.4452 157.111 35.1305 156.796C34.819 156.485 34.6518 156.067 34.6285 155.638H38.2926C38.2628 156.079 38.0922 156.516 37.7591 156.847C37.7061 156.9 37.6548 156.953 37.5488 157.006L42.8051 164.916ZM33.6718 158.592C33.5944 158.531 33.5185 158.468 33.4414 158.406L33.2058 155.638H33.4195L33.6718 158.592ZM11.6639 133.068L11.5548 132.873L16.5659 132.131L9.8866 129.804C9.7993 129.636 9.7103 129.468 9.6241 129.299L17.4072 132.025L22.0883 131.343L19.0901 128.344L8.3729 126.734L8.257 126.486L18.8268 128.081L9.8344 119.246L7.4159 119.877L5.665 120.323L5.587 120.118L7.7839 119.562L9.6768 119.089L7.1526 116.617L4.759 117.809C4.7315 117.729 4.7017 117.65 4.6745 117.57L6.7832 116.511L4.6575 117.52C4.6346 117.452 4.6139 117.383 4.5912 117.315L6.8362 116.248L3.734 113.252L3.3482 113.296L3.2864 113.068L3.5234 113.041L3.1886 112.706C3.1135 112.433 3.0406 112.159 2.9667 111.886L4.1017 112.988L11.991 112.094L11.2537 111.569L2.8003 111.27C2.7827 111.202 2.7677 111.133 2.7504 111.065L10.9921 111.358L1.3112 104.294C1.2557 103.971 1.2027 103.648 1.1505 103.324L5.4166 102.838L1.1034 99.419L0.720497 100.355C0.698397 100.18 0.681697 100.004 0.660697 99.8295L0.893097 99.2617L0.566298 99.0038L0.530897 98.6937L0.999097 99.0514L1.5774 97.6318L0.427097 97.6576C0.413797 97.5187 0.402997 97.3787 0.389997 97.2398L1.7877 97.2111L5.1003 89.1114L0.0310974 88.4923L0.0361967 88.0892L5.3123 88.7438L10.4124 76.3326L0.622997 78.8996C0.650997 78.6587 0.675997 78.4169 0.705697 78.1765L10.7801 75.4379L11.4641 73.861C11.3068 73.808 11.1494 73.7037 11.0434 73.5977C10.4124 72.9667 10.4124 72.0211 10.9904 71.3898L9.9918 70.2851L3.8077 63.5503C3.844 63.4307 3.878 63.3099 3.9149 63.1903L11.2007 71.2308C11.4641 71.0204 11.832 70.9161 12.1484 70.9161C12.569 70.9161 12.9367 71.0734 13.253 71.3898C13.3043 71.4411 13.3573 71.4941 13.4103 71.5471L21.5084 66.3413L6.6129 55.668L6.7523 55.3264L21.8777 66.1309L23.9816 64.7726V64.9846L22.0353 66.2353L23.4033 67.2339L23.9816 66.9723V67.224L23.612 67.3929L23.9816 67.6531V68.1152L23.1913 67.5503L13.6207 71.915C13.8313 72.493 13.7253 73.124 13.253 73.5977C13.0957 73.7553 12.8837 73.861 12.6733 73.9656L12.9367 74.86L23.9816 71.8935V72.3357L20.2994 73.3343L23.9816 72.3621V72.8077L13.2 75.6483L15.5669 83.748L17.4602 90.2694L23.9816 91.0741V91.5016L17.6175 90.69L19.4048 96.8948L23.9816 96.8086V97.2293L19.5638 97.3154L20.667 101.051L23.9816 100.673V101.095L20.7731 101.471L23.9816 112.311V113.126L20.5627 101.523L6.2052 103.154L15.2506 110.306C15.3036 110.253 15.3036 110.253 15.3566 110.2C15.7773 109.833 16.3025 109.622 16.8292 109.622C17.3542 109.622 17.8809 109.833 18.3018 110.2C19.0371 110.938 19.0371 112.147 18.4061 112.935C18.3531 112.988 18.3018 113.041 18.2488 113.093C18.1958 113.146 18.1958 113.146 18.1428 113.199L20.5627 116.301L22.5603 115.827C22.403 115.092 22.6133 114.355 23.1913 113.777C23.4399 113.58 23.6899 113.429 23.9816 113.324V117.46C23.6851 117.348 23.4101 117.172 23.1913 116.932C22.9297 116.669 22.7193 116.354 22.6133 116.037L20.72 116.511L23.4033 119.93L23.9816 120.349V121.073L23.665 120.666L18.7225 117.038L10.3081 119.142L19.5108 128.187L23.9816 128.873V129.082L19.7741 128.449L22.6133 131.237L23.9816 131.033V131.265L22.7706 131.447L23.9816 132.625V133.156L22.2987 131.5L17.8281 132.184L23.9816 134.303V134.741L16.9335 132.288L11.6639 133.068ZM0.306297 96.2984C0.276297 95.9168 0.251897 95.5342 0.226097 95.1518C0.408997 95.4984 0.438397 95.9236 0.306297 96.2984ZM19.2474 116.879L22.7706 119.456L20.5097 116.564L19.2474 116.879ZM7.5732 116.407L10.1491 118.983L18.5121 116.828L13.6737 113.303L7.5732 116.407ZM14.0946 113.146L19.0371 116.722L20.3524 116.407L17.9855 113.303C17.7235 113.462 17.4602 113.619 17.1969 113.619C16.5659 113.777 15.8289 113.566 15.3566 113.093C15.1976 112.935 15.0933 112.831 15.0403 112.672L14.0946 113.146ZM4.312 113.199L7.2039 116.09L13.4103 113.146L12.2527 112.304L4.312 113.199ZM12.8837 112.2L13.8313 112.935L14.936 112.41C14.8829 112.304 14.8299 112.147 14.7769 111.989L12.8837 112.2ZM12.569 112.041L14.7769 111.779C14.7769 111.726 14.7769 111.726 14.7769 111.726L11.991 111.62L12.569 112.041ZM1.2625 103.732L11.7277 111.358L14.7769 111.516C14.7769 111.148 14.936 110.779 15.1463 110.464L5.8906 103.206L1.2625 103.732ZM1.8407 97.6318L1.2095 99.2087L5.7316 102.785L20.4567 101.102L19.3535 97.3154L1.8407 97.6318ZM2.0511 97.2111L19.1961 96.8948L18.3531 94.0556L17.4072 90.69L5.3636 89.1644L2.0511 97.2111ZM10.7288 76.2795L5.5212 88.7438L17.2499 90.2164L12.9897 75.7013L10.7288 76.2795ZM11.0964 75.3866L12.7794 74.913L12.516 74.0186C12.2014 74.0716 11.938 74.0716 11.6747 73.9656L11.0964 75.3866ZM13.5164 71.7044L22.981 67.3929L21.6674 66.4456L13.5164 71.7044ZM89.3633 0.841431L89.6422 0.845131L90.5595 6.07223L91.2968 6.43983L94.5337 1.04523C94.6876 1.05573 94.8421 1.06313 94.996 1.07443L91.6644 6.59893L99.6051 10.4897L102.288 7.07113L99.992 1.58753C100.17 1.61073 100.347 1.63773 100.524 1.66203L102.603 6.65023L105.766 2.54113L105.965 2.57903L102.656 6.86083L104.233 10.5957L112.128 4.05793C112.233 4.08713 112.339 4.11373 112.443 4.14323L104.339 10.8576L105.391 13.3306L110.911 16.0651V15.7488H111.912L115.435 7.12413L116.176 5.29043L116.381 5.35733L112.174 15.7488H112.543V17.0638L132.001 31.9995L131.64 12.1239C131.781 12.2035 131.924 12.2812 132.065 12.3614L132.421 32.3142L142.992 40.4669L149.028 45.0948H148.667L132.421 32.6305L132.645 45.0948H132.227L132.001 32.3142L112.543 17.3274V17.3787H112.122L119.8 41.7805C120.431 41.6232 121.115 41.7805 121.589 42.2542C121.746 42.4115 121.85 42.5705 121.903 42.7278C122.114 42.6748 122.324 42.6748 122.534 42.6748C123.797 42.6748 124.848 43.4118 125.216 44.6211C125.269 44.7784 125.269 44.8844 125.269 45.0417L125.445 45.0948H119.149C119.13 45.0817 119.116 45.0684 119.116 45.0417C119.064 45.0417 119.064 45.0417 119.064 44.9887C119.011 44.9887 118.958 44.9357 118.905 44.8844L118.854 44.8314L118.59 45.0417L118.612 45.0948H118.117L109.808 25.1621L105.045 45.0948H104.795L109.649 24.7942L106.81 17.9054L92.8207 21.2713C92.9267 21.7962 92.7691 22.3229 92.3484 22.7436C91.7174 23.3749 90.6655 23.3749 90.0345 22.6906C89.4035 22.0596 89.4035 21.0076 90.0345 20.3766L90.0858 20.3236L89.1932 19.272L83.5647 19.956L83.0927 20.7443L86.5096 27.582L95.3052 45.0948H95.0252L82.9337 20.9546L68.3707 45.0948H67.8588L82.7234 20.534L82.5128 20.1133L67.8937 21.9553L65.6327 41.1492L65.1574 45.0948H64.9388L67.6303 22.0066L58.3746 23.1642L63.8438 45.0948H63.2244L59.216 43.7268C59.1629 43.8328 59.1116 43.9371 59.0586 44.0431L60.3736 45.0948H59.8486L58.9013 44.2534C58.691 44.4638 58.4276 44.5681 58.111 44.6211L58.1824 45.0948H57.9653L57.9024 44.6741C57.6903 44.6741 57.48 44.6741 57.2697 44.5681L57.0313 45.0948H56.7663L57.0594 44.4638C56.902 44.4108 56.7977 44.3047 56.6917 44.2004C56.6387 44.1474 56.5874 44.0944 56.5344 44.0431L54.9226 45.0948H54.4821L56.4284 43.8328C56.0604 43.2528 56.1664 42.5175 56.6917 42.0438C57.3227 41.4128 58.27 41.4128 58.9013 42.0438C59.269 42.4115 59.4263 42.9912 59.269 43.5164L63.6335 45.0417L61.3726 35.9964L58.217 23.1642L53.2215 23.7955L47.9094 26.2137L52.4199 45.0948H51.7027L50.2763 38.8883L47.4357 26.4241L23.9816 36.9868V36.6787L47.3827 26.1624L47.0151 24.5838L34.9715 26.1094C35.0245 26.8447 34.7612 27.582 34.2362 28.107C33.3416 29.0543 31.7647 29.1074 30.7643 28.213L29.5551 29.4223L23.9816 34.8914V34.4674L30.5557 28.0027C29.8184 27.1081 29.7654 25.8461 30.3967 24.9002L28.9462 23.8122C29.0137 23.7507 29.0828 23.6909 29.1506 23.6297L30.5557 24.6898C30.607 24.6368 30.66 24.5838 30.713 24.5308C31.291 23.9528 32.0266 23.7425 32.7106 23.7955L33.2685 20.1326C33.3909 20.0345 33.512 19.935 33.6347 19.8375L33.0269 23.8485C33.0783 23.8485 33.1313 23.8485 33.1843 23.8998L35.0463 18.7479C35.1889 18.6399 35.3287 18.5285 35.4721 18.4213L33.4476 24.0058C33.7623 24.1102 34.0256 24.2692 34.2892 24.5308C34.5509 24.8472 34.7612 25.1621 34.8672 25.5314L46.4901 22.2699L44.4395 13.2776C44.02 13.3476 43.6044 13.332 43.2121 13.243C44.4242 12.5207 45.6547 11.8257 46.9034 11.1606C46.6168 12.1 45.8835 12.8748 44.8585 13.1715L46.9621 22.1126L57.2184 19.2207L54.3319 7.63603L54.5481 7.54763L57.3757 19.0101L57.4287 19.1677L68.3143 16.0651L69.6809 4.70563L69.8992 2.77353L70.1509 2.71883L68.5777 16.0121L70.1016 15.5385C69.9442 14.8542 70.1546 14.1189 70.6815 13.5922C71.5742 12.7506 72.9424 12.7506 73.7838 13.5922C74.6254 14.4335 74.6254 15.8018 73.7838 16.6431C72.8894 17.4847 71.5229 17.4847 70.6815 16.6431C70.5225 16.4858 70.4179 16.3268 70.3119 16.1165L68.4719 16.9581L67.8937 21.6919L82.4085 19.8517L73.4841 2.08783L73.7177 2.04903L82.6188 19.8517L83.1971 19.7457L85.9316 15.2238L75.0197 1.83553C75.1112 1.82163 75.2036 1.81063 75.2955 1.79703L78.6219 5.91493L86.0377 15.0132L86.8793 13.6452L80.4092 1.28703L80.2462 1.20653L80.6507 1.17083L87.7736 4.70563L87.015 0.84683L87.2588 0.843731L88.0352 4.80993L90.2448 5.91493L89.3633 0.841431ZM153.046 28.9645C153.199 29.1286 153.353 29.2919 153.505 29.4571L159.775 45.0948H159.506L153.046 28.9645ZM163.461 42.5609C163.542 42.6918 163.625 42.8225 163.706 42.954L163.836 45.0948H163.614L163.461 42.5609ZM109.966 24.4265L118.484 44.8314L118.697 44.6741C118.17 43.9371 118.223 42.9382 118.905 42.2542C119.116 42.0438 119.326 41.9395 119.589 41.8335L111.912 17.3787H111.649L109.966 24.4265ZM47.5417 24.5308L47.8564 25.8991L52.2742 23.9528L47.5417 24.5308ZM34.9202 25.7931C34.9202 25.8461 34.9715 25.8461 34.9715 25.8461L46.9621 24.3735L46.5431 22.5332L34.9202 25.7931ZM47.0151 22.3759L47.4887 24.2692L53.0625 23.5852L57.7434 21.4816L57.2697 19.4823L47.0151 22.3759ZM107.231 17.7994L109.808 24.0589L111.438 17.3787H110.911V16.9065L107.231 17.7994ZM54.0098 23.4792L58.111 22.9539L57.8494 21.7449L54.0098 23.4792ZM58.0067 21.6389L58.3216 22.9009L67.6833 21.7449L68.21 17.0638L58.0067 21.6389ZM57.48 19.431L57.9537 21.3756L68.2613 16.7474L68.3143 16.3798L57.48 19.431ZM92.5588 20.587C92.6631 20.7443 92.7691 20.9033 92.7691 21.0606L106.704 17.6951L104.864 13.3306L102.656 12.2256L92.5588 20.587ZM92.2954 20.2723C92.3484 20.3236 92.3484 20.3236 92.3997 20.3766L102.393 12.1196L99.6581 10.753L93.4534 18.7997V19.4823H92.9267L92.2954 20.2723ZM82.8824 20.3236L83.0397 20.062H82.7234L82.8824 20.3236ZM89.4548 19.2207L90.2448 20.2193C90.2961 20.1663 90.2961 20.1663 90.3491 20.1663L89.8242 19.1677L89.4548 19.2207ZM90.8758 19.0617L91.0334 19.903C91.0864 19.903 91.1377 19.903 91.1908 19.903C91.5071 19.903 91.8748 20.009 92.1381 20.1663L92.6631 19.4823H91.8217V18.904L90.8758 19.0617ZM90.0858 19.1677L90.5595 20.062C90.6125 20.009 90.6655 19.956 90.7698 19.956L90.6125 19.0617L90.0858 19.1677ZM83.7237 19.6926L89.0342 19.0101L86.195 15.5915L83.7237 19.6926ZM86.3523 15.3811L89.2975 19.0101L89.6651 18.9571L87.1409 14.0659L86.3523 15.3811ZM87.2469 13.8555L89.9285 18.904L90.5595 18.851L88.9829 10.9634L87.2469 13.8555ZM89.1932 10.647L90.8228 18.7997L91.8217 18.6937V17.8524H92.3484L90.6655 8.22883L89.1932 10.647ZM90.8758 7.91243L92.6101 17.8524H93.4534V18.4834L99.4478 10.7L91.5584 6.75623L90.8758 7.91243ZM107.125 17.5891L110.911 16.6431V16.3268L105.495 13.6452L107.125 17.5891ZM68.5246 16.2755L68.4719 16.6431L70.2076 15.8548H70.1546L68.5246 16.2755ZM87.0366 13.4349L88.8768 10.3324L87.8249 4.96753L80.7258 1.44433L87.0366 13.4349ZM102.813 12.1196L104.76 13.0672L103.97 11.121L102.813 12.1196ZM99.7624 10.5957L102.603 11.9623L103.865 10.9106L102.34 7.28143L99.7624 10.5957ZM89.0872 10.016L90.5595 7.65083L90.2961 6.17823L88.0882 5.07353L89.0872 10.016ZM90.7698 7.28143L91.1908 6.59893L90.5595 6.28253L90.7698 7.28143ZM31.9206 45.0948L23.9816 44.2021V43.9717L34.0256 45.0948H31.9206ZM166.274 47.4112L166.372 47.598L164.081 49.4063L164.449 54.8227C164.923 54.8227 165.395 54.9817 165.764 55.2964L168.527 51.9126L168.632 52.1354L165.921 55.4537C165.974 55.4537 166.026 55.4537 166.026 55.5067C166.92 56.4013 166.92 57.7679 166.026 58.6622C165.133 59.5035 163.765 59.5035 162.87 58.6622C162.766 58.5579 162.66 58.4519 162.609 58.2946L161.872 58.7682L170.97 61.9238L172.264 61.2987C172.306 61.4254 172.346 61.553 172.387 61.68L171.548 62.0811L172.642 62.4652C172.696 62.6316 172.751 62.7971 172.803 62.9641L171.023 62.3444L136.471 78.9628C136.524 79.0141 136.524 79.0671 136.575 79.1201L165.08 71.0734L174.313 68.4743C174.347 68.6158 174.383 68.7567 174.417 68.8984L136.681 79.5408C136.996 81.0664 136.418 82.5903 135.209 83.4316L154.562 82.3287L161.136 81.9593L175.042 71.7747C175.072 71.9284 175.1 72.0831 175.13 72.2373L161.872 81.9593L176.393 81.1364L176.411 81.3408L161.557 82.1697L146.201 93.4776L165.133 107.623C165.186 107.572 165.237 107.519 165.29 107.466C165.343 107.413 165.395 107.361 165.448 107.308H165.501C165.554 107.255 165.605 107.202 165.658 107.151H165.711C165.764 107.098 165.816 107.098 165.816 107.045C166.5 106.677 167.341 106.73 168.025 107.098L172.968 99.1044L176.671 93.1411C176.665 93.2707 176.663 93.4014 176.656 93.5309L175.808 94.8972L168.236 107.202C168.34 107.308 168.446 107.361 168.55 107.466C168.762 107.729 168.92 107.992 169.077 108.254L175.12 106.218L175.072 106.466L169.13 108.465C169.183 108.675 169.234 108.885 169.234 109.096C169.234 109.569 169.077 109.99 168.867 110.358L171.444 112.147L173.38 113.497C173.361 113.564 173.34 113.631 173.32 113.697L168.762 110.517C168.709 110.517 168.709 110.517 168.709 110.568C168.656 110.621 168.603 110.674 168.55 110.727C167.815 111.516 166.71 111.62 165.816 111.095L152.722 132.078L164.638 133.893L164.392 134.309L152.512 132.499L149.934 136.601L161.081 139.46L160.83 139.822L149.724 136.969L138.076 155.638H137.793L149.46 136.916L124.376 130.448L128.103 155.638H127.891L125.005 136.181L124.164 130.395L117.645 128.712L125.98 155.638H125.801L117.433 128.659L111.175 127.082L112.069 139.441L118.643 150.59L121.61 155.638H121.062L112.122 140.439L113.183 155.638H112.939L111.859 139.967L104.443 127.346C104.286 127.45 104.076 127.503 103.918 127.556C102.393 127.977 100.814 127.082 100.342 125.61L71.0492 132.184L56.0604 143.805L58.27 145.488C58.638 145.067 59.1116 144.805 59.6366 144.646C59.9 144.595 60.1103 144.542 60.3736 144.542C61.5299 144.542 62.6348 145.331 62.9495 146.54C63.2658 147.645 62.8451 148.854 61.8975 149.485L63.2658 151.799L71.0656 155.638H70.5472L63.4761 152.168L65.5267 155.638H65.0596L62.7921 151.799L59.216 150.065L57.6903 153.324L59.4263 155.638H59.1082L57.533 153.588L56.5724 155.638H56.1151L57.2697 153.22L53.1685 147.855C53.0625 147.908 52.9052 147.961 52.7479 148.012L54.4968 155.638H54.2701L52.5905 148.065C52.1166 148.118 51.6429 148.012 51.2753 147.645C51.1709 147.54 51.1179 147.487 51.0649 147.381L44.9115 150.853L50.9257 155.638H50.2335L44.5438 151.063L41.862 152.589L44.3434 155.638H43.8051L41.4926 152.799L38.127 154.692C38.2628 154.982 38.3158 155.312 38.2926 155.638H34.6285C34.6005 155.123 34.781 154.591 35.1818 154.219C35.3922 154.008 35.6025 153.902 35.8128 153.798L33.0269 144.121C32.9739 144.121 32.9209 144.174 32.8679 144.174C32.7106 144.226 32.6063 144.226 32.4473 144.279L33.4195 155.638H33.2058L32.2369 144.279C30.5557 144.436 28.9241 143.384 28.4504 141.702C28.1358 140.492 28.4504 139.23 29.2404 138.336L26.4528 135.601L23.9816 134.741V134.303L25.7686 134.919L23.9816 133.156V132.625L26.6632 135.233L30.8703 136.706L29.0831 130.501L23.9816 131.265V131.033L28.9771 130.291L28.8711 129.817L23.9816 129.082V128.873L28.7668 129.607L28.0828 127.187L27.6618 125.82L23.9816 121.073V120.349L26.6632 122.297L25.2949 117.563C24.866 117.656 24.3989 117.619 23.9816 117.46V113.324C23.9997 113.318 24.0162 113.309 24.0329 113.303L23.9816 113.126V112.311L24.2432 113.199C24.4023 113.146 24.6126 113.146 24.7699 113.146C25.0846 113.146 25.3479 113.199 25.6112 113.303L31.5543 100.209L23.9816 101.095V100.673L31.7647 99.7884L33.0269 97.0538L23.9816 97.2293V96.8086L33.2373 96.6331L34.9202 92.8979L23.9816 91.5016V91.0741L25.9792 91.321L35.1305 92.4773L40.7573 80.1191L28.7668 71.5471L23.9816 72.8077V72.3621L24.8759 72.1254L28.3461 71.2308L28.2401 71.1794L23.9816 72.3357V71.8935L27.8194 70.8631L23.9816 68.1152V67.6531L28.2931 70.7058L47.4357 65.4997L52.5905 54.1917L41.3883 59.2932L23.9816 67.224V66.9723L52.7479 53.9301L53.3789 52.4575L52.2226 47.3557L51.4856 47.3027L23.9816 64.9846V64.7726L51.1179 47.2497L31.9206 45.0948H34.0256L51.4326 47.0393L52.0636 46.6717L51.7027 45.0948H52.4199L52.6949 46.251L54.4821 45.0948H54.9226L52.7479 46.5143L52.9052 47.1983L55.6398 47.5133L56.7663 45.0948H57.0313L55.9031 47.5663L58.3746 47.8296L57.9653 45.0948H58.1824L58.585 47.8296L63.0025 48.3546C63.0025 48.1973 63.0555 48.0913 63.1085 47.9869L59.8486 45.0948H60.3736L60.8989 45.5154L63.4231 47.5663C63.4231 47.5133 63.4231 47.4603 63.4761 47.4603C63.6865 47.2497 63.8968 47.1453 64.1071 47.0923L63.6865 45.2521L63.2244 45.0948H63.8438L64.8957 45.4624L64.9388 45.0948H65.1574L65.1061 45.5154L67.1583 46.251L67.8588 45.0948H68.3707L67.5773 46.4083L89.8242 54.0344L98.3429 51.7205L95.0252 45.0948H95.3052L98.6062 51.6674L103.549 50.3009L104.795 45.0948H105.045L103.812 50.2479L115.803 46.988L118.117 45.0948H118.612L119.011 46.0937L119.695 45.9364L119.8 45.4097C119.695 45.3567 119.589 45.3567 119.536 45.3051H119.485C119.432 45.2521 119.432 45.2521 119.379 45.1991C119.326 45.1991 119.326 45.1991 119.274 45.1461H119.221C119.195 45.1197 119.168 45.1064 119.149 45.0948H125.445L132.264 47.1453L132.227 45.0948H132.645L132.685 47.3027L157.033 54.7184L159.084 53.0885L148.667 45.0948H149.028L159.243 52.9294L161.819 50.8789L159.506 45.0948H159.775L162.031 50.7215L163.871 49.3019L163.614 45.0948H163.836L164.081 49.1429L166.274 47.4112ZM37.4958 153.955C37.5488 154.061 37.6548 154.113 37.7591 154.219C37.8651 154.323 37.9164 154.429 38.0224 154.533L41.3353 152.64L39.442 150.326L37.4958 153.955ZM37.2341 153.851L39.2847 150.116L34.0786 143.754L36.1825 153.692C36.2868 153.692 36.3928 153.641 36.4971 153.641C36.7605 153.641 37.0238 153.745 37.2341 153.851V153.851ZM53.4319 147.645L53.3789 147.698L57.3757 152.956L58.8483 149.906L53.6935 147.33C53.5892 147.434 53.5362 147.54 53.4319 147.645V147.645ZM33.2373 144.068L35.7615 152.64L33.8683 143.701C33.6579 143.858 33.4476 143.964 33.2373 144.068ZM39.7054 149.906L41.756 152.43L44.3335 150.957L40.7043 148.012L39.7054 149.906ZM59.322 149.854L62.5818 151.484L61.5299 149.695C61.3726 149.748 61.2152 149.801 61.0562 149.854C60.4782 150.012 59.9 150.012 59.3733 149.801L59.322 149.854ZM40.9146 147.645L44.7542 150.696L50.9589 147.224C50.6973 146.646 50.8016 145.909 51.2753 145.437L51.3283 145.384L43.1755 143.543L40.9146 147.645ZM53.7995 147.12L58.9543 149.695L59.0056 149.591C58.3746 149.275 57.9007 148.696 57.7434 147.961C57.639 147.592 57.586 147.224 57.639 146.856L53.7995 145.962C53.9568 146.329 53.9568 146.75 53.7995 147.12V147.12ZM34.3405 143.384L39.548 149.695L40.547 147.855L34.6039 143.123C34.4995 143.227 34.4465 143.28 34.3405 143.384V143.384ZM34.8672 142.753L40.7573 147.487L42.9669 143.49L35.3922 141.755C35.2349 142.122 35.0775 142.439 34.8672 142.753ZM54.5351 144.963L57.8494 146.172C57.9024 146.015 57.9537 145.909 58.0597 145.804L55.6928 144.068L54.5351 144.963ZM53.8525 145.541L56.4814 146.119L54.1142 145.331L53.8525 145.541ZM52.9052 145.12C53.1155 145.173 53.2728 145.278 53.4319 145.437H53.5362L53.8525 145.226L52.9582 144.91L52.9052 145.12ZM52.6949 145.067L52.8009 144.857L44.1229 141.808L43.3859 143.123L51.8532 145.067C52.0106 145.016 52.2212 145.016 52.3799 145.016C52.4845 145.016 52.5905 145.016 52.6949 145.067V145.067ZM53.1155 144.489L54.2732 144.91L55.4824 143.964L53.6935 142.596L53.1155 144.489ZM46.3841 137.705L44.3335 141.44L52.9052 144.436L53.4832 142.492L46.8047 137.6L46.3841 137.705ZM55.7988 135.601L53.7995 142.175L55.8501 143.648L70.4709 132.288L55.7988 135.601ZM35.4982 140.125C35.5512 140.545 35.5512 140.966 35.4452 141.334L43.1755 143.07L43.9126 141.755L37.8651 139.598L35.4982 140.125ZM47.3827 137.494L53.6422 142.071L55.5868 135.654L47.3827 137.494ZM38.6537 139.441L44.1229 141.334L46.0691 137.758L38.6537 139.441ZM35.3922 139.704L37.0751 139.336L34.7629 138.546C35.0245 138.863 35.2349 139.283 35.3922 139.704V139.704ZM34.7629 138.074L37.8651 139.177L46.3841 137.233L39.9687 132.605L34.7629 138.074ZM104.813 127.135L111.806 139.02L110.964 127.029L105.865 125.714C105.706 126.294 105.285 126.766 104.811 127.135H104.813ZM29.2404 137.811L29.5038 138.074C29.923 137.705 30.3967 137.39 30.9747 137.233C30.9747 137.233 30.9747 137.233 31.0277 137.233L27.3472 135.917L29.2404 137.811ZM32.7106 137.18C33.2373 137.337 33.6579 137.547 34.0786 137.864L34.2892 137.915L39.5994 132.341L28.8198 124.401L30.9747 129.29H31.922V130.869H31.3953L32.7106 137.18ZM31.816 137.074L31.975 137.127C32.1856 137.127 32.3429 137.127 32.5003 137.18L32.0796 135.18L31.3953 131.868L31.816 137.074ZM61.7402 109.675L46.7517 137.022L46.9108 137.127L55.7458 135.18L64.3705 106.941L61.7402 109.675ZM29.2917 130.448L31.1337 136.812L31.6074 136.969L31.0807 130.869H30.3967V130.291L29.2917 130.448ZM40.2836 132.288L46.5944 136.863L47.8564 134.498L61.1092 110.358L40.2836 132.288ZM124.323 129.974L149.671 136.495L152.248 132.446L124.06 128.187L124.323 129.974ZM64.6854 106.624L57.533 129.921L55.9561 135.129L71.2595 131.657L108.283 102.944L108.44 102.364L72.3112 101.682L69.4193 101.629L64.6854 106.624ZM121.589 111.463L122.745 119.562L123.956 127.713L152.458 132.025L165.607 110.989C165.501 110.885 165.395 110.832 165.29 110.727C164.817 110.253 164.606 109.675 164.606 109.096C164.606 108.781 164.712 108.465 164.817 108.15L142.204 96.3698L121.589 111.463ZM26.9265 114.775C27.1368 115.513 26.9778 116.354 26.3468 116.985C26.1895 117.142 25.9792 117.3 25.7686 117.406L28.5034 123.664L39.9157 132.025L61.9505 108.834L65.3164 102.734C65.2121 102.681 65.1061 102.575 65.0531 102.523C64.8957 102.364 64.7914 102.207 64.7384 102.049L26.9265 114.775ZM71.8375 131.553L100.289 125.189C100.079 123.717 100.92 122.348 102.393 121.981C102.813 121.876 103.234 121.823 103.655 121.928L108.177 103.312L71.8375 131.553ZM29.2404 130.291L30.3967 130.08L29.1344 129.87L29.2404 130.291ZM117.486 128.238L124.06 129.921L123.797 128.134L117.171 127.135L117.486 128.238ZM29.0301 129.607L30.3967 129.817V129.29L28.0828 126.294L29.0301 129.607ZM27.9251 125.714L30.713 129.29L28.4521 124.137L27.1881 123.19L27.9251 125.714ZM111.122 126.609L117.275 128.187L116.908 127.082L111.122 126.188V126.609ZM114.016 117.038L117.012 126.662L123.743 127.66L121.378 111.62L114.016 117.038ZM110.65 119.509L111.07 125.767L116.801 126.609L115.646 123.033L113.857 117.142L110.65 119.509ZM110.911 126.556V126.188L107.441 125.663L110.911 126.556ZM105.601 123.19C105.706 123.453 105.863 123.717 105.916 123.98C106.022 124.295 106.073 124.662 106.022 124.979L110.86 125.714L110.439 119.667L105.601 123.19ZM27.5045 125.242L26.8735 122.98L24.3492 121.139L27.5045 125.242ZM25.5052 117.51L26.9795 122.559L28.1358 123.4L28.0312 123.19L25.5582 117.459C25.5582 117.459 25.5052 117.459 25.5052 117.51V117.51ZM104.076 122.034C104.549 122.191 105.022 122.507 105.338 122.875L110.386 119.193L109.282 102.995H108.703L104.076 122.034ZM110.597 119.036L113.699 116.775L109.492 103.206L110.597 119.036ZM113.91 116.617L121.325 111.199L119.748 100.63L115.539 101.312L110.07 102.26V102.995H109.649L113.91 116.617ZM31.816 100.209L25.8216 113.409C25.9792 113.462 26.1895 113.619 26.3468 113.777C26.5571 113.987 26.7162 114.25 26.8735 114.514L52.0106 106.099L64.6854 101.839C64.5281 101.312 64.6854 100.734 65.0531 100.367C65.2634 100.156 65.5267 100.05 65.7901 99.9987L65.4737 97.5788C65.1591 97.9464 64.7914 98.2631 64.2645 98.4204C63.1085 98.7367 61.8975 98.0525 61.5299 96.8435C61.5299 96.7905 61.5299 96.7905 61.5299 96.7375L31.816 100.209ZM121.536 111.042L124.323 108.938L141.835 96.1592L121.43 85.5352L121.799 98.2101C122.273 98.2101 122.798 98.4204 123.165 98.788C123.956 99.5781 123.954 100.84 123.165 101.576C122.377 102.364 121.115 102.364 120.326 101.576C120.22 101.471 120.167 101.365 120.063 101.208L121.536 111.042ZM62.5818 108.15L64.6338 105.993L65.5797 102.891C65.5797 102.838 65.5267 102.838 65.5267 102.838L62.5818 108.15ZM142.414 96.2122L164.923 107.939C164.923 107.886 164.974 107.886 164.974 107.833L145.99 93.5819L142.414 96.2122ZM64.9487 105.679L68.7883 101.629H67.6303C67.6303 101.943 67.473 102.26 67.2097 102.523C66.789 102.891 66.2637 103.048 65.7901 102.944L64.9487 105.679ZM72.2582 101.418L104.443 102.049L108.493 102.154L108.861 100.63L72.2582 101.418ZM109.808 100.577L109.598 101.576H110.07V102.049L119.695 100.42V100.367L109.808 100.577ZM109.071 101.576H109.388L109.545 100.577H109.282L109.071 101.576ZM65.3164 94.7399C65.5267 95.0015 65.684 95.3179 65.7901 95.6855C65.9474 96.2122 65.8944 96.7905 65.6327 97.2641L66.0534 99.9457C66.0534 99.9457 66.1047 99.9457 66.1577 99.9457C66.5257 99.9457 66.895 100.05 67.2097 100.367C67.473 100.63 67.6303 100.998 67.6303 101.312H69.1029L93.768 75.3866L89.0342 71.1794L61.0579 65.1833L65.3164 94.7399ZM69.7339 101.261L81.9878 100.998L108.914 100.367L111.228 90.9534L94.2417 75.8073L94.0827 75.6483L69.7339 101.261ZM109.86 100.367L119.695 100.156L119.379 98.2631L111.596 91.268L109.86 100.367ZM109.335 100.367H109.598L110.492 95.7385L109.335 100.367ZM33.2886 97.0538L32.0266 99.7354L59.216 96.5801L33.2886 97.0538ZM119.853 99.6824C119.906 99.419 120.01 99.1574 120.167 98.9471L119.642 98.4734L119.853 99.6824ZM119.642 98.1571L120.326 98.788C120.484 98.6307 120.641 98.5264 120.798 98.4734L119.168 95.0545L119.642 98.1571ZM119.011 94.2132L121.009 98.3158C121.062 98.3158 121.168 98.2631 121.219 98.2631L118.537 85.6943C118.484 85.6412 118.433 85.5882 118.38 85.5352C117.853 85.0103 117.749 84.2219 118.117 83.5907L116.908 78.1215L116.697 77.0696L116.487 77.0166L119.011 94.2132ZM121.483 98.2101C121.536 98.2101 121.536 98.2101 121.589 98.2101L121.272 85.4309L120.904 85.2206C120.851 85.3249 120.798 85.4309 120.694 85.5352C120.167 86.0619 119.432 86.1149 118.801 85.8516L121.483 98.2101ZM111.649 91.0577L119.326 97.9464L118.801 94.3192L113.542 83.2213L111.649 91.0577ZM33.4989 96.6331L60.6355 96.1062L57.2697 95.6855L35.1835 92.8979L33.4989 96.6331ZM121.43 84.4323V85.2736L128.688 89.0601L141.994 96.0019L145.621 93.3186L133.263 84.1159C132.738 84.1159 132.158 84.0629 131.686 83.8523L121.43 84.4323ZM35.3409 92.4773L61.5299 95.7385C61.5829 95.5282 61.6359 95.3179 61.7932 95.1606L40.9676 80.2251L35.3409 92.4773ZM47.1211 66.7619L41.125 79.8557L62.0035 94.8442C62.2669 94.5296 62.5818 94.3192 63.0025 94.2132L57.0594 68.3389C55.0618 68.4962 53.1685 67.2869 52.5905 65.3406L47.1211 66.7619ZM65.0017 94.5296L60.8459 65.1833C60.4266 66.6029 59.322 67.7606 57.8494 68.1815C57.8494 68.1815 57.8494 68.1815 57.7964 68.1815L63.4231 94.1086C63.5291 94.0556 63.6335 94.0556 63.7395 94.0556C64.2114 94.0556 64.6324 94.2132 65.0017 94.5296ZM113.648 82.8537L118.697 93.4776L116.224 76.9635L115.12 76.7532L113.648 82.8537ZM134.788 83.695C134.578 83.801 134.314 83.9053 134.051 83.9583C133.894 84.0113 133.736 84.0113 133.579 84.0629L145.831 93.2143L160.767 82.2227L134.788 83.695ZM94.2417 75.4909L111.281 90.743V90.69L112.122 87.3772L113.068 82.2757L109.913 75.597L96.8175 72.8094L94.2417 75.4909ZM121.009 85.0633L121.272 85.1676L121.219 84.4323H121.168C121.168 84.6426 121.115 84.8529 121.009 85.0633ZM121.378 83.3803L121.43 84.1689L131.212 83.642C130.371 83.17 129.74 82.38 129.423 81.3811C129.423 81.328 129.372 81.2237 129.372 81.1707L127.426 79.6981L121.378 83.3803ZM121.009 83.642C121.115 83.801 121.168 84.0113 121.168 84.1689H121.219V83.4846L121.009 83.642ZM121.062 83.3273L121.219 83.2743V83.2213L121.062 83.3273ZM119.695 82.7493C120.063 82.8006 120.431 82.9597 120.694 83.2213C120.747 83.2743 120.747 83.2743 120.798 83.3273L121.219 82.9597L121.062 78.0155L119.748 77.7006L119.695 82.7493ZM118.276 83.3273C118.327 83.2743 118.327 83.2743 118.38 83.2213C118.537 83.064 118.748 82.9597 118.958 82.8537L117.275 77.1739L116.961 77.1209L118.276 83.3273ZM121.378 83.117V83.17L127.268 79.5938L126.742 79.2245L126.427 79.1201L121.378 83.117ZM113.174 82.9597L113.279 82.6433L113.226 82.5903L113.174 82.9597ZM121.378 82.8537L126.163 79.0671L121.272 78.0155L121.378 82.8537ZM119.221 82.8006C119.274 82.7493 119.379 82.7493 119.485 82.7493L119.536 77.6475L117.539 77.2269L119.221 82.8006ZM114.016 78.5935L113.332 82.2227V82.2757L114.698 76.6489L114.383 76.5959L114.016 78.5935ZM113.174 81.8547L114.173 76.5429L110.229 75.7013L113.174 81.8547ZM127.636 79.5938L129.319 80.9074C129.266 80.4867 129.319 80.1191 129.372 79.7511L127.846 79.4348L127.636 79.5938ZM29.2917 71.4411L40.9146 79.7511L46.8047 66.8132L29.2917 71.4411ZM127.426 79.4878L127.583 79.3835L127.215 79.3305L127.426 79.4878ZM128.371 79.1201L129.423 79.3835C129.582 78.9098 129.793 78.4891 130.107 78.1215L128.371 79.1201ZM126.848 78.8038L128.11 79.0671L130.634 77.5415C130.844 77.3312 131.106 77.1739 131.422 77.0166L130.844 75.6483L126.848 78.8038ZM120.641 54.3507L121.168 74.8069L126.427 78.6995L126.531 78.7525L130.738 75.4379L121.115 52.2984L120.641 54.3507ZM121.219 77.5945L125.953 78.5935L121.168 75.0703L121.219 77.5945ZM133.211 76.2282V76.5959C134.525 76.6489 135.683 77.3842 136.314 78.5422L170.443 62.1341L161.398 59.0299L133.211 76.2282ZM119.748 77.2799L121.062 77.5945L121.009 75.7013V74.913L119.8 74.0186L119.748 77.2799ZM116.434 71.6514L116.381 71.7044L116.172 72.599L116.593 74.1246L117.382 76.8062L119.536 77.2799L119.589 73.861L116.54 71.5471C116.487 71.6001 116.487 71.6001 116.434 71.6514V71.6514ZM116.854 76.7002L117.171 76.7532L117.012 76.3326L116.119 73.3343L116.854 76.7002ZM132.421 76.6489C132.58 76.6489 132.685 76.6489 132.789 76.5959V76.4386L132.421 76.6489ZM116.434 76.5959L116.593 76.6489L116.066 74.229L116.434 76.5959ZM131.686 74.966L132.16 76.5959L132.789 76.2282L132.738 74.1246L131.686 74.966ZM115.225 76.3326L116.172 76.5429L115.803 74.0186L115.225 76.3326ZM131.212 75.3336L131.633 76.3856L131.317 75.2806L131.212 75.3336ZM114.488 76.1752L114.804 76.2282L115.646 72.8624L115.539 72.0211C115.435 72.0211 115.382 72.0211 115.278 72.0211L114.488 76.1752ZM104.813 64.395L105.865 66.5516L109.966 75.2276L114.277 76.1222L115.067 72.0211C114.804 71.915 114.594 71.8104 114.436 71.6514C113.857 71.0734 113.91 70.1791 114.436 69.6008C114.751 69.2862 115.172 69.1802 115.592 69.2332L119.064 49.4063L104.813 64.395ZM145.463 64.0787L133.158 73.808L133.211 75.9649L161.136 58.9256L154.772 56.716L145.463 64.0787ZM93.9253 75.2276L96.2923 72.7034L89.4548 71.2308L93.9253 75.2276ZM97.1339 72.493L102.656 73.6507L109.702 75.1763L104.654 64.5523L97.1339 72.493ZM121.325 51.5629L131.108 75.1233L131.212 75.0703L123.165 48.04C122.798 48.0913 122.481 48.0913 122.167 48.04L121.325 51.5629ZM123.586 47.8809L129.004 66.1309L131.633 74.7556L132.738 73.861L132.317 48.9326L125.059 46.4083C124.795 47.0923 124.27 47.6193 123.586 47.8809V47.8809ZM120.116 56.4543L119.957 63.9743L119.8 73.808L120.957 74.6496L120.431 55.033L120.116 56.4543ZM116.75 70.1278C116.96 70.5485 116.908 71.0204 116.644 71.3898L119.589 73.6507L119.906 57.3469L116.75 70.1278ZM133.158 73.5447L154.562 56.6646L132.738 49.0916L133.158 73.5447ZM75.624 58.8726L88.8252 70.7058L96.6086 72.3357L104.443 64.1317L102.34 59.6611C101.762 59.8715 101.131 59.7672 100.657 59.3462C100.289 58.9786 100.183 58.4519 100.236 57.9782L99.5521 57.7679L89.0872 55.086L75.624 58.8726ZM44.7542 66.6559L28.7137 71.0204L28.8198 71.0734L47.0681 66.2883L47.2254 66.0249L44.7542 66.6559ZM60.8989 63.0797C61.0049 63.5534 61.0049 64.0274 60.9519 64.4993L61.0049 64.7097L88.4029 70.5998L75.3624 58.9786L60.8989 63.0797ZM119.379 49.0916L115.803 69.2332C116.013 69.3375 116.223 69.4435 116.434 69.6538L119.906 55.4024L120.01 49.6169L119.642 48.7753L119.379 49.0916ZM47.4887 65.9206L47.3827 66.2353L52.4845 64.92C52.4315 64.8157 52.4315 64.7097 52.4315 64.6053L47.4887 65.9206ZM52.9052 54.0344L47.6991 65.4467L52.3799 64.1847C52.3272 62.3444 53.3789 60.6615 55.1148 59.9775L53.6935 53.7197L52.9052 54.0344ZM115.329 47.6193L103.024 57.4C103.445 57.9782 103.392 58.8195 102.866 59.3462C102.76 59.4505 102.656 59.5035 102.55 59.5566L104.601 63.9213L119.221 48.5649L119.326 47.9869L118.748 46.6717L115.329 47.6193ZM60.6355 62.3444V62.3957C60.6886 62.4487 60.7416 62.5548 60.7946 62.6591L74.993 58.6092L74.8887 58.5049L60.6355 62.3444ZM65.3164 50.1435L60.1103 58.7152L60.5842 61.9751L74.5194 58.1886L65.4224 50.0905C65.3694 50.0905 65.3694 50.1435 65.3164 50.1435V50.1435ZM59.0586 60.4512C59.5836 60.8188 60.0043 61.2395 60.3736 61.7647L59.953 58.9786L59.0586 60.4512ZM58.691 60.2408L59.8469 58.3476L59.0586 52.7191L58.8483 51.3525L54.3778 53.4031L55.9031 59.7672C56.1664 59.7672 56.4284 59.7142 56.6387 59.7142C57.3757 59.7142 58.0597 59.9245 58.691 60.2408ZM155.193 56.4543L161.608 58.6622L162.503 58.1372C162.239 57.6106 162.188 57.0323 162.292 56.5586L157.086 54.9287L155.193 56.4543ZM75.099 58.4519L75.2564 58.5579L86.0377 55.5067L75.099 58.4519ZM65.7901 49.8272C65.7371 49.8802 65.684 49.9332 65.6327 49.9845L74.7297 58.1372L87.4572 54.6654L66.2107 49.1429C66.1064 49.4063 66.0004 49.6169 65.7901 49.8272V49.8272ZM59.0586 51.2465L59.5836 54.9287L60.0573 58.0312L64.7384 50.3009C64.2645 50.3539 63.7908 50.1949 63.4231 49.8272C63.3188 49.7229 63.2128 49.5639 63.1598 49.4063L59.0586 51.2465ZM91.1908 54.508L100.342 57.6106C100.393 57.453 100.499 57.2956 100.657 57.1366C100.763 57.0323 100.867 56.9793 100.973 56.9263L98.6592 52.3514L91.1908 54.508ZM89.5078 54.9817L98.8695 57.4L90.7698 54.6124L89.5078 54.9817ZM105.653 50.3539L103.655 50.9319L102.235 56.769C102.497 56.875 102.707 56.9793 102.866 57.1896L111.017 50.7745L114.751 47.8296L105.653 50.3539ZM98.9211 52.2984L101.184 56.822C101.445 56.716 101.709 56.6646 101.972 56.716L103.339 51.0362L98.9211 52.2984ZM132.685 48.6179L154.93 56.3483L156.823 54.8757L132.685 47.5133V48.6179ZM157.297 54.7714L162.346 56.2953C162.45 56.138 162.503 55.9806 162.609 55.8233L159.243 53.2458L157.297 54.7714ZM159.453 53.0885L162.766 55.6127C162.819 55.6127 162.819 55.5597 162.87 55.5067C163.083 55.2964 163.291 55.192 163.501 55.033L161.925 51.0892L159.453 53.0885ZM162.135 50.9319L163.712 54.9817C163.871 54.9287 164.028 54.8757 164.186 54.8757L163.871 49.5639L162.135 50.9319ZM66.2637 48.5649C66.2637 48.7223 66.2637 48.8283 66.2637 48.9326L84.88 53.771L87.8779 54.5611L89.4548 54.1404L67.473 46.5674L66.2637 48.5649ZM120.167 54.455L120.431 53.4031L120.326 50.4052L120.22 50.1435L120.167 54.455ZM53.0625 53.771L53.6422 53.5091L53.4832 52.8251L53.0625 53.771ZM54.0098 51.7205L54.3262 53.1928L58.8483 51.1422L58.3746 48.0913L55.7988 47.7766L54.0098 51.7205ZM120.588 52.7191L120.851 51.6159L120.537 50.8789L120.588 52.7191ZM53.9038 51.3525L55.5354 47.7766L52.9582 47.4603L53.9038 51.3525ZM59.0586 51.0362L63.0555 49.2489C63.0025 49.0386 62.9495 48.8283 62.9495 48.5649L58.638 48.0913L59.0586 51.0362ZM120.431 47.9339L120.484 49.6169L121.009 50.8789L121.746 47.9339C121.43 47.8296 121.168 47.6706 120.904 47.4603L120.431 47.9339ZM120.22 49.0386L120.273 49.1429V48.1443L120.22 49.0386ZM125.216 46.0407L132.264 48.5119V47.3557L125.322 45.2521C125.322 45.5154 125.269 45.7773 125.216 46.0407ZM119.853 46.357L119.642 47.5663L119.8 47.9869L120.063 47.7236V46.4083C120.063 46.357 120.063 46.357 120.01 46.304L119.853 46.357ZM64.9487 47.0393C65.2634 47.0923 65.5267 47.1983 65.7901 47.4603C65.9474 47.6193 66.0534 47.7766 66.1047 47.9869L67.0523 46.4083L65.0548 45.726L64.9487 47.0393ZM63.2128 47.8296C63.2128 47.7766 63.2658 47.7236 63.2658 47.6706L61.0049 45.8303L63.2128 47.8296ZM120.431 47.3027L120.537 47.1453C120.537 47.0923 120.484 47.0393 120.431 46.988V47.3027ZM119.221 46.5674L119.485 47.1983L119.589 46.4083L119.221 46.5674ZM51.8002 47.0923L52.1696 47.1453L52.1166 46.882L51.8002 47.0923ZM64.3175 47.0393C64.4751 46.988 64.5811 46.988 64.6854 46.988L64.8427 45.673L63.8968 45.3567L64.3175 47.0393ZM116.329 46.829L118.59 46.198L118.223 45.3567L116.329 46.829ZM13.0651 42.9767L13.1972 42.7655L23.9816 43.9717V44.2021L13.0651 42.9767ZM14.7968 40.273C14.8801 40.148 14.9606 40.0213 15.0445 39.8969L18.1958 38.9943C18.1445 38.784 18.1428 38.5737 18.1958 38.3103L16.491 37.8168C16.5491 37.7357 16.609 37.6558 16.6674 37.5753L18.3018 38.047C18.3531 37.8897 18.4591 37.6793 18.6165 37.522L17.5268 36.3966L17.7108 36.1534L18.6165 37.1011L17.8347 35.9916L18.0172 35.7537L19.0371 37.2054C19.3005 37.048 19.6151 36.942 19.8787 36.942C20.2994 36.942 20.72 37.1011 21.0364 37.363L23.9816 34.4674V34.8914L21.2467 37.5733C21.2997 37.6263 21.351 37.7323 21.404 37.8366L23.9816 36.6787V36.9868L21.5084 38.1C21.7717 38.678 21.6144 39.362 21.1407 39.8872C20.4567 40.5712 19.3535 40.5712 18.6695 39.8872C18.5121 39.7299 18.3531 39.5196 18.3018 39.2562L14.7968 40.273Z" fill="#C6C7D1"/>
<path d="M248.516 127.496V105.326L270.614 125.128V102.972" stroke="#0D1F8D" stroke-width="2.16"/>
<path d="M408.723 103.948C414.963 103.948 420.022 109.007 420.022 115.247C420.022 121.488 414.963 126.547 408.723 126.547C402.482 126.547 397.423 121.488 397.423 115.247C397.423 109.007 402.482 103.948 408.723 103.948V103.948Z" stroke="#0D1F8D" stroke-width="2.16"/>
<path d="M385.083 126.538H392.595M385.092 103.952H392.605H385.092ZM388.848 103.53V126.77V103.53Z" stroke="#0D1F8D" stroke-width="2.16"/>
<path d="M369.064 107.488V127.635M357.262 103.955H380.983H357.262Z" stroke="#0D1F8D" stroke-width="2.16"/>
<path d="M335.081 127.079L346.578 105.01L357.297 127.048" stroke="#0D1F8D" stroke-width="1.9199"/>
<path d="M319.891 115.019L331.565 126.766M309.918 114.993V127.443V114.993ZM308.879 103.832H326.283C329.353 103.939 331.787 106.474 331.787 109.565C331.787 112.656 329.353 115.192 326.283 115.299H308.839L308.879 103.832Z" stroke="#0D1F8D" stroke-width="2.16"/>
<path d="M277.674 126.493L301.631 126.455M278.753 114.885V126.455V114.885ZM301.639 103.973H278.753V115.085H301.569L301.639 103.973Z" stroke="#0D1F8D" stroke-width="2.16"/>
<path d="M427.018 127.496V105.326L449.116 125.128V102.972" stroke="#0D1F8D" stroke-width="2.16"/>
<path d="M217.973 126.493L241.931 126.455M219.052 114.885V126.455V114.885ZM241.939 103.973H219.052V115.085H241.869L241.939 103.973Z" stroke="#0D1F8D" stroke-width="2.16"/>
<path d="M242.859 66.3159C238.809 66.1693 235.002 68.2468 232.933 71.732C230.865 75.2173 230.865 79.5542 232.933 83.0395C235.002 86.5247 238.809 88.6022 242.859 88.4555C247.201 88.2926 249.077 86.9146 250.932 85.0935C252.863 83.1986 254.083 79.7621 254.052 76.3029M254.946 77.3511H242.25H254.946Z" stroke="#0D1F8D" stroke-width="2.16"/>
<path d="M351.502 88.4689H328.408V65.7744V65.1444" stroke="#0D1F8D" stroke-width="2.16"/>
<path d="M297.264 89.1879L308.761 67.119L319.48 89.1574" stroke="#0D1F8D" stroke-width="1.9199"/>
<path d="M283.566 69.4391V89.5861M271.764 65.906H295.486H271.764Z" stroke="#0D1F8D" stroke-width="2.16"/>
<path d="M261.059 88.5147H268.572M261.069 65.9291H268.581H261.069ZM264.825 65.507V88.7471V65.507Z" stroke="#0D1F8D" stroke-width="2.16"/>
<path d="M200.304 104.269C196.254 104.123 192.447 106.2 190.378 109.685C188.31 113.171 188.31 117.507 190.378 120.993C192.447 124.478 196.254 126.556 200.304 126.409C204.646 126.246 206.522 124.868 208.377 123.047C210.308 121.152 211.528 117.715 211.497 114.256M212.391 115.304H199.695H212.391Z" stroke="#0D1F8D" stroke-width="2.16"/>
<path d="M218.918 88.5147H226.43M218.927 65.9291H226.439H218.927ZM222.683 65.507V88.7471V65.507Z" stroke="#0D1F8D" stroke-width="2.16"/>
<path d="M189.214 66.2477H202.321C208.068 66.7648 212.472 71.5817 212.472 77.3521C212.472 83.1226 207.944 87.9393 202.197 88.4564M202.321 88.4564H189.233H202.321ZM189.214 65.1838V89.5206V65.1838Z" stroke="#0D1F8D" stroke-width="2.16"/>
<path d="M115.658 64.9101C108.238 64.6413 101.263 68.4477 97.4723 74.8333C93.6824 81.2192 93.6824 89.1653 97.4723 95.5512C101.263 101.937 108.238 105.743 115.658 105.474C123.614 105.176 127.05 102.651 130.45 99.3144C133.987 95.8426 136.223 89.5463 136.166 83.2083M137.804 85.1287H114.542H137.804Z" stroke="#FCFDFF" stroke-width="3.8401"/>
<path d="M43.3204 64.8594H66.9724C77.3438 65.7926 85.2896 74.485 85.2896 84.8981C85.2896 95.3115 77.119 104.004 66.7473 104.937M66.9724 104.937H43.3541H66.9724ZM43.3204 62.9395V106.857V62.9395Z" stroke="#FCFDFF" stroke-width="3.8401"/>
<defs>
<linearGradient id="paint0_linear" x1="0.0220032" y1="0.829224" x2="176.763" y2="0.829224" gradientUnits="userSpaceOnUse">
<stop stop-color="#D6D6D6"/>
<stop offset="0.12" stop-color="white"/>
</linearGradient>
<linearGradient id="paint1_linear" x1="88.32" y1="0.999947" x2="88.32" y2="177.5" gradientUnits="userSpaceOnUse">
<stop stop-color="#132391"/>
<stop offset="0.505208" stop-color="#4887DB"/>
<stop offset="1" stop-color="#132391"/>
</linearGradient>
</defs>
</svg>
