<svg width="801" height="601" viewBox="0 0 801 601" fill="none" xmlns="http://www.w3.org/2000/svg">
<path fill-rule="evenodd" clip-rule="evenodd" d="M683.482 163.697V232.002L718.253 197.849L683.482 163.697Z" fill="#00A575"/>
<path fill-rule="evenodd" clip-rule="evenodd" d="M753.021 163.697V232.002L718.248 197.849L753.021 163.697Z" fill="black"/>
<path fill-rule="evenodd" clip-rule="evenodd" d="M185.346 197.484L183.255 199.376L162.794 268.219L162.689 268.288L139.749 199.296L137.682 197.484H116.842L114.775 199.296L91.9818 267.798L91.6022 267.598L91.4914 267.51L71.0531 199.371L68.9641 197.484H48.7225L47.3594 199.327L79.1957 296.312L81.4481 298.265H101.526L103.779 296.312L126.536 226.921L126.968 226.924L149.872 296.318L152.122 298.265H172.455L174.705 296.312L206.544 199.327L205.178 197.484H185.346Z" fill="#070808"/>
<path fill-rule="evenodd" clip-rule="evenodd" d="M185.346 197.483L183.255 199.375L162.794 268.218L162.692 268.287L139.751 199.295L137.682 197.483H116.842L114.775 199.295L91.9818 267.799L91.6022 267.597L91.4914 267.511L71.0558 199.37L68.9641 197.483H48.7225L47.3594 199.325L79.1957 296.314L81.4481 298.264H101.526L103.779 296.314L126.536 226.92L126.968 226.923L149.872 296.317L152.122 298.264H172.455L174.707 296.314L206.544 199.325L205.181 197.483H185.346Z" fill="#070808"/>
<path fill-rule="evenodd" clip-rule="evenodd" d="M185.346 197.483L183.255 199.375L162.794 268.218L162.692 268.287L139.751 199.295L137.682 197.483H116.842L114.775 199.295L91.9818 267.799L91.6022 267.597L91.4914 267.511L71.0558 199.37L68.9641 197.483H48.7225L47.3594 199.325L79.1957 296.314L81.4481 298.264H101.526L103.779 296.314L126.536 226.92L126.968 226.923L149.872 296.317L152.122 298.264H172.455L174.707 296.314L206.544 199.325L205.181 197.483H185.346Z" fill="black"/>
<path fill-rule="evenodd" clip-rule="evenodd" d="M430.59 197.484H410.529L408.329 199.291L380.26 271.05L380.025 271.222L352.275 199.302L350.073 197.484H329.609L328.368 199.291L368.317 296.387L370.677 298.265H389.123L391.476 296.395L431.829 199.296L430.59 197.484Z" fill="#070808"/>
<path fill-rule="evenodd" clip-rule="evenodd" d="M410.531 197.483L408.331 199.289L380.265 271.049L380.027 271.221L352.277 199.3L350.077 197.483H329.614L328.373 199.289L368.322 296.386L370.679 298.264H389.126L391.478 296.394L431.833 199.295L430.592 197.483H410.531Z" fill="#070808"/>
<path fill-rule="evenodd" clip-rule="evenodd" d="M410.531 197.483L408.331 199.289L380.265 271.049L380.027 271.221L352.277 199.3L350.077 197.483H329.614L328.373 199.289L368.322 296.386L370.679 298.264H389.126L391.478 296.394L431.833 199.295L430.592 197.483H410.531Z" fill="black"/>
<path fill-rule="evenodd" clip-rule="evenodd" d="M459.648 235.351C462.958 223.471 473.077 214.68 486.392 214.68C503.987 214.68 511.296 226.895 513.374 235.351H459.648ZM533.87 253.329L535.782 251.483L535.834 248.588C535.834 232.86 531.299 219.273 522.356 209.831C513.376 200.356 501.275 195.552 486.394 195.552C472.029 195.552 460.054 200.758 450.812 211.022C441.616 221.235 436.954 233.597 436.954 247.771C436.954 262.74 441.761 275.313 451.244 285.137C460.747 294.989 473.245 299.99 488.394 299.99C499.307 299.99 508.669 297.38 516.219 292.238C523.744 287.113 531.684 278.726 534.394 267.226L532.914 265.328H514.219L511.623 267.195C506.924 276.438 499.754 280.81 487.993 280.81C480.279 280.81 473.45 278.122 467.696 272.825C462.251 267.819 459.115 261.807 458.359 253.312L533.87 253.329Z" fill="black"/>
<path fill-rule="evenodd" clip-rule="evenodd" d="M285.317 271.978C279.538 277.965 272.639 280.91 264.394 280.91C256.282 280.91 250.37 277.932 244.53 271.881C238.711 265.861 235.78 257.779 235.78 247.769C235.78 237.764 238.711 229.683 244.53 223.66C250.37 217.609 256.282 214.63 264.394 214.63C272.639 214.63 279.538 217.576 285.317 223.56C289.091 227.472 291.629 232.318 292.934 238.044V257.493C291.629 263.223 289.091 268.066 285.317 271.978V271.978ZM295.877 197.483L293.965 199.365V209.394L293.638 209.776C291.012 206.438 287.56 203.534 283.304 201.088C282.343 200.534 281.348 200.013 280.32 199.525C274.668 196.849 268.343 195.502 261.417 195.502C248.467 195.502 237.211 200.553 227.83 210.571C218.476 220.554 213.761 233.024 213.761 247.769C213.761 262.514 218.476 274.984 227.83 284.966C237.211 294.987 248.467 300.035 261.417 300.035C268.293 300.035 274.582 298.705 280.209 296.059C281.309 295.541 282.373 294.987 283.401 294.391C287.477 292.025 290.807 289.238 293.37 286.044C293.461 285.952 293.877 286.113 293.965 286.016V296.389L295.877 298.265H312.952L314.863 296.389V199.365L312.952 197.483H295.877Z" fill="black"/>
<mask id="mask0" mask-type="alpha" maskUnits="userSpaceOnUse" x="549" y="195" width="88" height="106">
<path fill-rule="evenodd" clip-rule="evenodd" d="M551.136 225.554C551.136 235.404 554.754 247.076 579.01 252.589V252.589C579.01 252.589 590.586 255.102 599.839 257.18V257.18C610.37 259.543 614.789 263.023 614.789 269.116V269.116C614.789 274.615 609.187 281.206 594.614 281.206V281.206C581.03 281.206 572.852 274.781 572.472 267.218V267.218L570.114 265.342H550.998L549.526 267.24C551.269 284.135 563.997 300.002 594.484 300.002V300.002C628.969 300.002 636.023 279.317 636.023 268.448V268.448C636.023 254.113 627.575 244.56 606.093 239.969V239.969C606.093 239.969 594.922 237.67 585.671 235.567V235.567C577.163 233.633 572.968 231.228 572.968 225.272V225.272C572.968 218.974 579.102 213.813 592.223 213.813V213.813C605.065 213.813 612.213 219.498 612.213 224.396V224.396L614.454 226.327H633.15L634.646 224.496C634.646 211.383 623.026 195.558 592.703 195.558V195.558C561.041 195.558 551.136 213.785 551.136 225.554V225.554Z" fill="white"/>
</mask>
<g mask="url(#mask0)">
<path fill-rule="evenodd" clip-rule="evenodd" d="M-432.792 3237.45H6306.19V-287.88H-432.792V3237.45Z" fill="black"/>
<path fill-rule="evenodd" clip-rule="evenodd" d="M528.466 321.058H657.083V174.499H528.466V321.058Z" fill="black"/>
</g>
<path fill-rule="evenodd" clip-rule="evenodd" d="M93.7648 365.474V371.035H75.3075V379.665H92.7591V385.225H75.3075V394.67H93.7648V400.231H68.4531V365.474H93.7648Z" fill="black"/>
<path fill-rule="evenodd" clip-rule="evenodd" d="M133.258 373.721V400.229H126.786V365.473H135.704L149.607 391.984V365.473H156.079V400.229H147.16L133.258 373.721Z" fill="black"/>
<path fill-rule="evenodd" clip-rule="evenodd" d="M188.189 371.034V365.474H216.473V371.034H205.735V400.23H198.88V371.034H188.189Z" fill="black"/>
<path fill-rule="evenodd" clip-rule="evenodd" d="M273.895 365.474V371.035H255.437V379.665H272.889V385.225H255.437V394.67H273.895V400.231H248.583V365.474H273.895Z" fill="black"/>
<path fill-rule="evenodd" clip-rule="evenodd" d="M313.783 381.294H319.44C324.759 381.294 327.112 379.474 327.112 376.069C327.112 372.04 323.754 370.843 319.105 370.843H313.783V381.294ZM313.777 386.616V400.231H306.92V365.474H318.332C329.788 365.474 334.152 368.735 334.152 376.022C334.152 380 332.187 383.355 327.871 385.175L335.59 400.231H327.968L321.064 386.616H313.777Z" fill="black"/>
<path fill-rule="evenodd" clip-rule="evenodd" d="M374.979 382.685H380.637C384.903 382.685 388.259 381.629 388.259 377.027C388.259 371.323 383.895 370.843 380.158 370.843H374.979V382.685ZM395.31 376.977C395.31 385.849 388.215 388.007 380.208 388.007H374.983V400.231H368.125V365.474H380.017C387.159 365.474 395.31 366.48 395.31 376.977V376.977Z" fill="black"/>
<path fill-rule="evenodd" clip-rule="evenodd" d="M434.374 381.294H440.029C445.351 381.294 447.7 379.474 447.7 376.069C447.7 372.04 444.345 370.843 439.693 370.843H434.374V381.294ZM434.372 386.616V400.231H427.515V365.474H438.927C450.383 365.474 454.747 368.735 454.747 376.022C454.747 380 452.782 383.355 448.466 385.175L456.185 400.231H448.56L441.659 386.616H434.372Z" fill="black"/>
<path fill-rule="evenodd" clip-rule="evenodd" d="M488.731 400.232H495.589V365.475H488.731V400.232Z" fill="black"/>
<path fill-rule="evenodd" clip-rule="evenodd" d="M529.423 374.919C529.423 367.921 536.857 364.851 543.279 364.851C550.471 364.851 556.608 369.071 556.943 375.734H550.327C549.798 371.658 546.252 370.315 542.991 370.315C539.827 370.315 536.28 371.514 536.28 374.631C536.28 377.075 538.342 378.418 541.123 378.945L545.675 379.759C551.333 380.765 557.564 383.02 557.564 390.213C557.564 397.355 550.471 400.852 543.47 400.852C534.937 400.852 529.279 396.25 528.659 388.772H535.272C536.042 393.853 539.588 395.388 543.711 395.388C546.781 395.388 550.662 394.285 550.662 390.548C550.662 387.572 547.931 386.472 544.24 385.802L539.827 384.985C534.172 383.882 529.423 380.959 529.423 374.919" fill="black"/>
<path fill-rule="evenodd" clip-rule="evenodd" d="M615.853 365.474V371.035H597.395V379.665H614.847V385.225H597.395V394.67H615.853V400.231H590.541V365.474H615.853Z" fill="black"/>
</svg>
